<?xml version="1.0" standalone="no"?>
<!DOCTYPE svg PUBLIC "-//W3C//DTD SVG 20010904//EN"
 "http://www.w3.org/TR/2001/REC-SVG-20010904/DTD/svg10.dtd">
<svg version="1.0" xmlns="http://www.w3.org/2000/svg"
 width="284.000000pt" height="284.000000pt" viewBox="0 0 284.000000 284.000000"
 preserveAspectRatio="xMidYMid meet">
<metadata>
Created by potrace 1.11, written by Peter Selinger 2001-2013
</metadata>
<g transform="translate(0.000000,284.000000) scale(0.100000,-0.100000)"
fill="#000000" stroke="none">
<path d="M2400 2554 c-47 -41 -96 -79 -109 -85 -13 -5 -21 -12 -18 -15 3 -4
-7 -18 -22 -33 -15 -14 -61 -75 -101 -136 -84 -126 -166 -231 -217 -275 -33
-30 -103 -114 -103 -125 0 -7 53 6 63 15 4 4 24 4 45 0 20 -3 44 -3 52 1 8 4
34 15 57 24 23 10 52 28 64 41 22 24 22 24 2 24 -12 0 -42 -16 -67 -35 -25
-19 -46 -33 -46 -30 0 12 55 103 76 126 13 14 24 32 24 40 0 9 18 36 41 60 23
24 42 49 43 54 2 15 63 103 111 160 39 47 56 76 59 100 2 14 96 109 129 129
28 17 36 36 15 36 -7 -1 -51 -35 -98 -76z m-170 -228 c0 -2 -7 -9 -15 -16 -13
-11 -14 -10 -9 4 5 14 24 23 24 12z"/>
<path d="M2535 2577 c-4 -19 -7 -53 -7 -74 -1 -21 -9 -69 -19 -108 -23 -85
-24 -108 -4 -82 7 11 11 25 9 32 -3 7 2 25 11 39 10 14 19 49 21 78 2 29 8 62
14 73 8 16 7 28 -4 49 l-15 29 -6 -36z"/>
<path d="M2585 2591 c-3 -5 -1 -12 5 -16 5 -3 10 1 10 9 0 18 -6 21 -15 7z"/>
<path d="M471 2529 c10 -20 9 -21 -15 -15 -20 5 -30 1 -43 -15 -10 -12 -28
-31 -40 -42 -24 -21 -31 -47 -13 -47 6 0 10 4 10 9 0 12 73 59 105 67 20 5 33
1 55 -21 47 -45 46 -9 -2 40 -46 49 -77 61 -57 24z"/>
<path d="M610 2391 c0 -5 5 -13 10 -16 6 -3 10 -2 10 4 0 5 -4 13 -10 16 -5 3
-10 2 -10 -4z"/>
<path d="M676 2335 c9 -14 21 -25 27 -25 6 0 0 11 -13 25 -13 14 -25 25 -27
25 -2 0 4 -11 13 -25z"/>
<path d="M720 2286 c0 -2 8 -10 18 -17 15 -13 16 -12 3 4 -13 16 -21 21 -21
13z"/>
<path d="M2484 2236 c-3 -14 -3 -34 1 -43 6 -17 7 -17 16 -1 9 17 8 53 -4 64
-3 3 -9 -5 -13 -20z"/>
<path d="M730 2191 c0 -5 4 -11 9 -13 18 -6 91 -103 91 -120 0 -10 11 -25 25
-34 14 -9 28 -27 31 -40 3 -13 11 -24 16 -24 11 0 25 -14 87 -85 29 -33 36
-37 52 -27 15 10 19 9 19 -1 0 -7 -5 -18 -12 -25 -14 -14 -4 -16 21 -2 14 7
23 4 41 -15 22 -23 22 -25 5 -51 -12 -19 -14 -29 -6 -37 6 -6 11 -18 11 -26
-1 -11 -8 -8 -24 11 -26 29 -62 32 -90 9 -13 -11 -17 -10 -25 10 -8 19 -10 13
-10 -34 -1 -54 -2 -56 -20 -45 -15 9 -23 9 -33 0 -11 -9 -17 -9 -26 0 -9 9
-15 9 -24 0 -8 -8 -5 -16 13 -31 19 -16 21 -20 7 -21 -9 0 -19 6 -21 13 -3 6
-3 -2 0 -19 4 -28 2 -32 -26 -37 -28 -6 -31 -10 -25 -32 9 -35 -12 -32 -35 6
-20 32 -40 24 -22 -9 6 -11 6 -24 0 -33 -7 -11 -13 -9 -31 12 -13 15 -36 35
-51 45 -30 18 -30 19 -11 99 10 43 42 85 65 85 11 0 17 5 14 10 -3 6 1 13 9
16 9 3 13 10 10 16 -3 5 3 19 14 31 34 37 71 115 57 120 -16 7 -142 -29 -171
-48 -13 -8 -30 -15 -39 -15 -13 0 -16 -6 -14 -26 0 -4 -10 -12 -23 -18 -18 -9
-23 -21 -25 -51 -1 -22 -6 -52 -12 -67 -6 -16 -7 -28 -4 -28 4 0 17 12 29 28
12 15 25 24 28 21 3 -3 -1 -31 -9 -63 -18 -70 -18 -71 0 -56 13 10 15 9 15 -8
0 -12 -4 -24 -10 -27 -5 -3 -10 -28 -10 -55 0 -37 3 -48 13 -44 15 5 37 -35
37 -66 0 -13 7 -20 19 -20 23 0 37 -18 24 -31 -4 -4 -67 -14 -138 -21 l-130
-13 3 -59 c2 -51 7 -64 36 -96 22 -24 43 -66 61 -121 55 -167 108 -238 206
-274 104 -39 120 -48 116 -66 -3 -12 3 -19 25 -23 17 -3 45 -22 62 -41 37 -40
46 -42 70 -16 14 15 15 21 4 27 -7 5 -20 9 -28 9 -19 0 -25 32 -10 50 7 8 28
17 49 21 20 3 68 16 106 27 39 12 75 22 80 22 14 2 155 -137 155 -152 0 -6 8
-19 17 -29 16 -15 16 -17 -2 -30 -10 -8 -26 -14 -36 -14 -9 0 -22 -7 -29 -15
-21 -26 15 -30 203 -24 46 1 47 14 2 33 -25 11 -35 22 -36 38 -2 42 3 53 44
99 23 25 50 60 59 77 17 33 53 46 41 16 -5 -14 -3 -14 17 -2 18 10 24 10 27 1
3 -7 17 -13 33 -13 42 0 80 -17 80 -36 0 -14 8 -16 54 -10 30 3 57 2 60 -2 2
-4 -19 -19 -47 -32 -43 -20 -48 -25 -29 -28 13 -2 39 4 57 12 19 9 53 19 77
22 48 6 118 33 118 46 0 4 5 8 12 8 27 0 142 67 172 100 35 39 74 126 106 239
15 52 30 82 51 101 27 24 31 34 32 91 l2 64 -88 9 c-88 9 -88 9 -83 35 6 25 6
25 -9 7 -15 -20 -15 -20 -15 0 0 12 3 24 8 28 4 4 8 31 9 59 0 29 6 65 12 80
14 35 14 40 1 32 -5 -3 -10 -1 -10 5 0 6 -10 10 -22 8 -16 -2 -22 -9 -20 -20
2 -10 -3 -18 -10 -18 -8 -1 -7 -5 5 -14 16 -13 16 -14 -6 -29 -20 -13 -24 -24
-23 -64 0 -35 -4 -48 -14 -48 -17 0 -33 65 -28 113 3 20 0 32 -8 32 -7 0 -24
14 -37 30 -14 17 -28 30 -31 30 -3 0 -6 -13 -6 -30 0 -16 -4 -30 -10 -30 -5 0
-10 9 -10 21 0 11 -4 17 -10 14 -5 -3 -10 -2 -10 4 0 5 7 14 16 19 24 13 10
52 -16 45 -11 -3 -20 -13 -21 -22 -1 -21 -21 38 -21 64 0 11 -2 14 -5 8 -3 -7
-11 -13 -19 -13 -8 0 -14 -3 -14 -7 0 -5 -11 -9 -24 -9 -18 -1 -26 5 -30 22
-7 26 -36 33 -36 9 0 -8 -9 -15 -20 -15 -14 0 -20 7 -20 23 -1 24 -24 60 -33
51 -7 -8 -37 21 -37 35 0 14 13 14 28 -1 15 -15 16 -3 2 23 -9 16 1 35 55 115
83 120 89 135 44 103 -19 -13 -37 -28 -41 -34 -5 -6 -8 -5 -8 3 0 8 -16 4 -50
-13 -27 -14 -56 -25 -65 -25 -8 0 -15 -4 -15 -8 0 -5 -11 -14 -25 -20 -21 -10
-25 -9 -25 3 0 17 -16 20 -25 5 -3 -6 -16 -8 -28 -5 -17 5 -28 -1 -45 -24 -29
-39 -70 -41 -103 -6 -23 24 -49 33 -49 18 0 -5 -16 -9 -35 -10 -19 -1 -35 2
-35 7 0 4 -39 11 -87 14 -125 8 -136 10 -169 33 -61 42 -62 39 -8 -59 12 -23
13 -28 2 -28 -14 0 -34 22 -168 180 -40 47 -86 97 -103 113 -30 27 -57 35 -57
18z m897 -296 c-7 -16 -37 -21 -37 -5 0 10 32 31 39 25 2 -2 1 -11 -2 -20z
m-477 6 c0 -14 -18 -23 -30 -16 -6 4 -8 11 -5 16 8 12 35 12 35 0z m610 -1 c0
-5 -9 -10 -19 -10 -11 0 -23 5 -26 10 -4 6 5 10 19 10 14 0 26 -4 26 -10z
m-500 -10 c21 -7 19 -8 -17 -9 -23 -1 -45 4 -48 9 -7 12 29 12 65 0z m-593
-202 c-5 -32 -27 -35 -27 -4 0 16 6 26 15 26 10 0 14 -8 12 -22z m1273 -78 c0
-11 -4 -20 -10 -20 -5 0 -10 9 -10 20 0 11 5 20 10 20 6 0 10 -9 10 -20z
m-910 -29 c0 -5 -6 -13 -12 -19 -16 -12 -62 3 -53 18 8 12 65 13 65 1z m954
-20 c3 -5 0 -11 -8 -14 -15 -6 -26 1 -26 15 0 11 27 10 34 -1z m-764 -31 c0
-11 -4 -20 -10 -20 -5 0 -10 9 -10 20 0 11 5 20 10 20 6 0 10 -9 10 -20z m818
1 c1 0 -3 -8 -10 -17 -33 -40 -50 -55 -56 -49 -4 3 -1 10 6 14 9 5 11 17 7 34
-6 24 -5 26 22 23 15 -2 29 -4 31 -5z m-1053 -31 c3 -5 1 -10 -4 -10 -6 0 -11
5 -11 10 0 6 2 10 4 10 3 0 8 -4 11 -10z m675 -7 c-1 -14 -27 -43 -39 -43 -6
0 -11 -9 -11 -20 0 -28 -18 -25 -26 5 -5 19 0 30 17 45 24 19 59 27 59 13z
m-400 -20 c-1 -11 -26 -43 -34 -43 -11 0 -6 38 7 43 19 8 27 8 27 0z m-530
-32 c0 -18 -21 -64 -26 -58 -9 8 6 67 17 67 5 0 9 -4 9 -9z m1302 -46 c11 -14
24 -22 30 -19 9 6 27 -12 28 -27 0 -3 -39 -9 -87 -13 -78 -5 -206 -23 -313
-42 -41 -8 -40 -6 27 39 33 22 60 33 72 30 11 -3 30 2 43 11 29 20 55 22 39 2
-9 -10 -8 -16 4 -26 12 -10 19 -9 38 3 12 8 32 17 42 20 11 2 2 5 -19 6 -46 1
-39 14 14 29 53 15 60 14 82 -13z m-1277 -35 c3 -5 1 -10 -4 -10 -6 0 -11 5
-11 10 0 6 2 10 4 10 3 0 8 -4 11 -10z m552 -12 c-3 -8 -6 -5 -6 6 -1 11 2 17
5 13 3 -3 4 -12 1 -19z m-192 -47 c-9 -9 -155 11 -149 21 3 5 16 7 28 5 11 -3
37 0 56 6 31 11 37 10 52 -8 9 -11 15 -22 13 -24z m965 -40 c0 -5 -14 -14 -30
-21 -24 -10 -33 -10 -46 1 -14 12 -14 14 3 20 26 11 73 11 73 0z m-1170 -21
c-14 -11 -45 -31 -69 -45 -61 -35 -138 -33 -81 3 11 7 20 18 20 26 0 20 40 35
100 35 l55 1 -25 -20z m1480 5 c0 -8 -9 -15 -20 -15 -11 0 -20 7 -20 15 0 8 9
15 20 15 11 0 20 -7 20 -15z m-571 -30 c12 -11 6 -14 -35 -20 -27 -4 -57 -9
-66 -12 -27 -7 -22 13 9 37 29 23 66 21 92 -5z m-1329 5 c0 -5 -4 -10 -9 -10
-6 0 -13 5 -16 10 -3 6 1 10 9 10 9 0 16 -4 16 -10z m154 -3 c10 -7 20 -31 23
-57 2 -25 11 -59 19 -77 19 -41 18 -53 -4 -53 -32 0 -56 24 -45 46 11 22 2 79
-12 79 -17 0 -22 -59 -8 -94 7 -18 13 -60 13 -93 0 -56 1 -59 22 -56 18 2 25
-4 36 -36 15 -47 9 -56 -19 -30 -56 50 -99 174 -99 283 0 49 4 64 22 81 26 24
29 24 52 7z m370 -21 c9 -13 7 -20 -9 -32 -26 -19 -51 -13 -47 11 8 45 36 55
56 21z m184 10 c51 -26 66 -53 67 -114 0 -68 -11 -104 -25 -82 -6 8 -10 27
-10 41 0 34 -36 117 -63 147 -23 25 -10 29 31 8z m432 -85 c-17 -50 -30 -104
-30 -118 0 -50 -21 -8 -31 61 -11 80 4 119 54 140 18 7 33 12 34 11 2 -1 -11
-43 -27 -94z m580 89 c0 -5 -4 -10 -10 -10 -5 0 -10 5 -10 10 0 6 5 10 10 10
6 0 10 -4 10 -10z m60 -11 c0 -11 4 -28 9 -37 11 -23 -4 -154 -26 -215 -10
-28 -32 -65 -48 -83 -37 -39 -104 -60 -136 -43 -15 8 -24 8 -32 0 -8 -8 -7
-11 4 -11 12 0 12 -2 -1 -10 -8 -5 -27 -10 -42 -10 -20 0 -26 4 -22 15 4 8 12
15 19 15 7 0 15 9 18 21 3 12 10 18 16 15 5 -4 15 2 20 13 9 16 20 19 65 16
49 -3 56 -1 85 28 17 18 32 43 33 57 3 21 -3 26 -34 34 -32 8 -36 12 -35 39 2
31 30 58 44 43 4 -5 2 -11 -4 -13 -7 -3 -13 -11 -13 -19 0 -17 0 -17 39 2 27
13 31 20 26 38 -13 40 -12 126 2 126 7 0 13 -9 13 -21z m-1190 -29 c12 -8 11
-10 -7 -10 -13 0 -23 5 -23 10 0 13 11 13 30 0z m860 -15 c5 -3 10 -18 10 -33
0 -59 -100 -124 -164 -108 -24 6 -37 26 -17 26 6 0 25 14 43 30 26 25 30 32
19 40 -12 7 -10 13 10 34 18 19 32 24 56 21 18 -2 37 -6 43 -10z m107 -40 c-6
-40 -4 -45 12 -45 17 0 18 -3 8 -30 -6 -16 -18 -30 -27 -30 -11 0 -12 -2 -3
-8 22 -14 -13 -52 -47 -52 -33 0 -80 -19 -95 -37 -6 -8 -38 -14 -75 -16 -36
-1 -70 -6 -77 -10 -13 -8 -58 6 -67 21 -11 18 6 44 25 39 11 -3 22 -1 25 4 3
5 30 9 60 9 86 0 143 37 195 128 49 85 75 96 66 27z m-1263 0 c-4 -9 0 -15 10
-15 9 0 16 7 16 15 0 34 18 12 23 -30 8 -54 44 -115 87 -145 39 -28 139 -42
198 -28 23 6 46 8 49 4 13 -13 -28 -74 -50 -75 -12 0 -31 -1 -42 -2 -50 -1
-212 52 -227 75 -29 46 -36 50 -52 37 -14 -12 -16 -12 -10 2 6 17 -23 87 -37
87 -5 0 -9 7 -9 15 0 8 7 15 15 15 8 0 15 5 15 11 0 6 -9 8 -20 4 -16 -5 -20
-2 -20 19 0 22 4 26 30 26 22 0 28 -4 24 -15z m381 -42 c-8 -34 -32 -73 -45
-73 -4 0 -15 7 -24 15 -16 17 -30 20 -21 6 3 -6 -3 -10 -12 -10 -10 0 -32 -3
-48 -7 -23 -4 -35 -1 -49 15 -26 29 -15 36 17 10 15 -11 27 -16 27 -10 0 6 -9
16 -20 23 -22 14 -27 38 -7 38 7 0 18 -9 25 -20 16 -27 46 -25 65 3 12 18 18
20 28 10 7 -7 21 -13 31 -13 16 0 17 3 8 20 -9 17 -8 20 11 20 18 0 20 -4 14
-27z m580 -3 c3 -5 1 -10 -4 -10 -6 0 -11 5 -11 10 0 6 2 10 4 10 3 0 8 -4 11
-10z m-337 -23 c6 3 12 -2 12 -11 0 -9 5 -16 10 -16 6 0 10 -9 10 -19 0 -36
-12 -51 -41 -51 -17 0 -32 -7 -38 -18 -7 -14 -18 -18 -40 -14 -29 4 -30 5 -17
31 7 14 16 38 20 53 9 38 33 60 54 49 9 -4 23 -6 30 -4z m91 -30 c6 -8 14 -28
17 -45 6 -32 6 -32 -35 -32 -44 0 -54 16 -26 40 9 7 13 21 10 31 -7 23 17 26
34 6z m654 -44 c-5 -15 -3 -16 8 -5 15 14 29 16 29 3 0 -5 -9 -12 -19 -16 -12
-3 -18 -12 -15 -20 4 -10 0 -12 -16 -8 -15 4 -18 9 -11 16 6 6 11 19 11 29 0
10 4 18 10 18 5 0 7 -8 3 -17z m-1393 -51 c0 -19 74 -82 96 -82 15 0 24 -6 24
-16 0 -9 9 -18 20 -21 30 -8 24 -23 -9 -23 -15 0 -45 11 -65 25 -20 14 -47 25
-60 25 -26 0 -52 40 -43 65 5 10 -1 19 -17 25 -30 11 -41 37 -18 43 17 3 72
-28 72 -41z m530 -172 c0 -5 -5 -10 -11 -10 -5 0 -7 5 -4 10 3 6 8 10 11 10 2
0 4 -4 4 -10z m169 -29 c21 -13 -19 -31 -70 -31 -35 0 -40 2 -29 14 10 13 25
18 75 24 6 1 16 -2 24 -7z"/>
<path d="M606 1202 c-2 -4 -1 -14 5 -22 7 -12 9 -10 9 8 0 23 -5 28 -14 14z"/>
<path d="M2121 846 c-9 -10 -7 -13 11 -12 12 0 23 7 26 14 5 16 -23 15 -37 -2z"/>
<path d="M1372 1031 c-16 -10 -13 -42 4 -48 6 -2 11 9 12 27 0 16 0 30 -1 30
-1 0 -8 -4 -15 -9z"/>
<path d="M1960 2105 c-8 -9 -8 -15 -2 -15 12 0 26 19 19 26 -2 2 -10 -2 -17
-11z"/>
<path d="M597 1952 c-41 -43 -33 -56 16 -26 55 35 54 34 37 44 -21 14 -23 13
-53 -18z"/>
<path d="M2170 1960 c-14 -11 -29 -20 -35 -20 -13 -1 -88 -70 -82 -76 2 -3 28
4 58 15 29 11 55 18 58 16 6 -6 5 -7 -47 -39 -23 -15 -40 -30 -38 -35 7 -10
54 -2 62 10 9 15 31 10 38 -7 4 -10 -1 -22 -11 -30 -23 -17 -7 -18 57 -3 80
18 108 68 57 104 -20 14 -20 14 1 49 l21 36 -57 0 c-41 0 -64 -6 -82 -20z"/>
<path d="M2400 1825 c0 -22 4 -34 10 -30 6 3 10 17 10 30 0 13 -4 27 -10 30
-6 4 -10 -8 -10 -30z"/>
<path d="M1885 1749 c-11 -17 1 -21 15 -4 8 9 8 15 2 15 -6 0 -14 -5 -17 -11z"/>
<path d="M2392 1740 c0 -14 2 -19 5 -12 2 6 2 18 0 25 -3 6 -5 1 -5 -13z"/>
<path d="M2211 1718 c-19 -12 -30 -23 -24 -25 16 -6 86 21 91 35 6 19 -29 14
-67 -10z"/>
<path d="M995 690 c-3 -6 1 -13 10 -16 19 -8 30 0 20 15 -8 14 -22 14 -30 1z"/>
<path d="M1700 680 c0 -5 4 -10 9 -10 6 0 13 5 16 10 3 6 -1 10 -9 10 -9 0
-16 -4 -16 -10z"/>
</g>
</svg>
